<svg width="123" height="23" viewBox="0 0 123 23" fill="none" xmlns="http://www.w3.org/2000/svg">
<path d="M6.05859 10.3125H4.11328V17.0625H0V0H4.11328V6.59766H5.69531L8.97656 0H13.957L9.26953 7.875L14.543 17.0625H9.67969L6.05859 10.3125Z" fill="white"/>
<path d="M22.7578 4.38281H26.7188V17.0625H22.7578V9.67969L19.2773 17.0625H15.3047V4.38281H19.2773V11.7422L22.7578 4.38281Z" fill="white"/>
<path d="M40.125 17.0625H36.1641V12.3633H32.707V17.0625H28.7578V4.38281H32.707V9.32812H36.1641V4.38281H40.125V17.0625Z" fill="white"/>
<path d="M41.7891 10.6055C41.7891 9.33984 42.0352 8.21484 42.5273 7.23047C43.0195 6.23828 43.7266 5.47656 44.6484 4.94531C45.5703 4.41406 46.6523 4.14844 47.8945 4.14844C49.793 4.14844 51.2891 4.73828 52.3828 5.91797C53.4766 7.08984 54.0234 8.6875 54.0234 10.7109V10.8516C54.0234 12.8281 53.4727 14.3984 52.3711 15.5625C51.2773 16.7188 49.793 17.2969 47.918 17.2969C46.1133 17.2969 44.6641 16.7578 43.5703 15.6797C42.4766 14.5938 41.8867 13.125 41.8008 11.2734L41.7891 10.6055ZM45.7383 10.8516C45.7383 12.0234 45.9219 12.8828 46.2891 13.4297C46.6562 13.9766 47.1992 14.25 47.918 14.25C49.3242 14.25 50.043 13.168 50.0742 11.0039V10.6055C50.0742 8.33203 49.3477 7.19531 47.8945 7.19531C46.5742 7.19531 45.8594 8.17578 45.75 10.1367L45.7383 10.8516Z" fill="white"/>
<path d="M70.2773 17.0625H66.1641V3.17578H60.0352V17.0625H55.9219V0H70.2773V17.0625Z" fill="white"/>
<path d="M77.7305 11.5312L79.8398 4.38281H84.0703L78.9023 19.1836L78.6797 19.7227C77.9453 21.3633 76.6484 22.1836 74.7891 22.1836C74.2734 22.1836 73.7305 22.1055 73.1602 21.9492V19.125H73.6758C74.2305 19.125 74.6523 19.043 74.9414 18.8789C75.2383 18.7227 75.457 18.4375 75.5977 18.0234L75.9141 17.1797L71.5078 4.38281H75.7266L77.7305 11.5312Z" fill="white"/>
<path d="M95.9414 4.38281V17.0625H91.9922V7.42969H89.625L89.4141 11.3086C89.2656 13.2305 88.832 14.668 88.1133 15.6211C87.3945 16.5742 86.3281 17.0547 84.9141 17.0625H83.6719L83.625 14.0391L84.0352 13.9922C84.5586 13.9297 84.9453 13.582 85.1953 12.9492C85.4531 12.3086 85.6172 11.3438 85.6875 10.0547L85.9336 4.38281H95.9414Z" fill="white"/>
<path d="M102.328 7.86328H104.355C105.527 7.86328 106.559 8.05469 107.449 8.4375C108.34 8.82031 109.02 9.36328 109.488 10.0664C109.957 10.7695 110.191 11.5859 110.191 12.5156C110.191 13.8828 109.66 14.9844 108.598 15.8203C107.543 16.6484 106.102 17.0625 104.273 17.0625H98.3555V4.38281H102.328V7.86328ZM102.328 10.8984V14.0391H104.332C104.934 14.0391 105.402 13.9023 105.738 13.6289C106.082 13.3477 106.254 12.9688 106.254 12.4922C106.254 12.0234 106.102 11.6406 105.797 11.3438C105.492 11.0469 105.004 10.8984 104.332 10.8984H102.328Z" fill="white"/>
<path d="M117.023 14.25C117.578 14.25 118.008 14.1016 118.312 13.8047C118.617 13.5 118.766 13.0781 118.758 12.5391H122.461C122.461 13.9297 121.961 15.0703 120.961 15.9609C119.969 16.8516 118.688 17.2969 117.117 17.2969C115.273 17.2969 113.82 16.7188 112.758 15.5625C111.695 14.4062 111.164 12.8047 111.164 10.7578V10.5938C111.164 9.3125 111.398 8.18359 111.867 7.20703C112.344 6.22266 113.027 5.46875 113.918 4.94531C114.809 4.41406 115.863 4.14844 117.082 4.14844C118.73 4.14844 120.039 4.60547 121.008 5.51953C121.977 6.43359 122.461 7.67188 122.461 9.23438H118.758C118.758 8.57812 118.598 8.07422 118.277 7.72266C117.957 7.37109 117.527 7.19531 116.988 7.19531C115.965 7.19531 115.367 7.84766 115.195 9.15234C115.141 9.56641 115.113 10.1367 115.113 10.8633C115.113 12.1367 115.266 13.0195 115.57 13.5117C115.875 14.0039 116.359 14.25 117.023 14.25Z" fill="white"/>
</svg>
